<svg width="25" height="25" viewBox="0 0 25 25" fill="none" xmlns="http://www.w3.org/2000/svg">
<g clip-path="url(#clip0_14_409)">
<path d="M12.5 25C5.60728 25 0 19.3924 0 12.5C0 5.60757 5.60728 0 12.5 0C19.3927 0 25 5.60757 25 12.5C25 19.3924 19.3927 25 12.5 25Z" fill="#FFE14D"/>
<path d="M25 12.5C25 5.60757 19.3927 0 12.5 0V25C19.3927 25 25 19.3924 25 12.5Z" fill="#FFCC33"/>
<path d="M12.5 21.7391C7.4054 21.7391 3.26086 17.5945 3.26086 12.5C3.26086 7.40544 7.4054 3.26086 12.5 3.26086C17.5946 3.26086 21.7391 7.4054 21.7391 12.5C21.7391 17.5946 17.5946 21.7391 12.5 21.7391ZM12.5 4.89128C8.30447 4.89128 4.89128 8.30447 4.89128 12.5C4.89128 16.6955 8.30447 20.1087 12.5 20.1087C16.6955 20.1087 20.1087 16.6955 20.1087 12.5C20.1087 8.30447 16.6955 4.89128 12.5 4.89128Z" fill="#FF9F19"/>
<path d="M20.1087 12.5C20.1087 16.6955 16.6955 20.1087 12.5 20.1087V21.7391C17.5946 21.7391 21.7391 17.5945 21.7391 12.5C21.7391 7.40544 17.5946 3.26086 12.5 3.26086V4.89128C16.6955 4.89128 20.1087 8.30447 20.1087 12.5Z" fill="#F28618"/>
<path d="M12.5 11.6848C12.2823 11.6848 12.0775 11.5998 11.9236 11.4457C11.7697 11.2918 11.6847 11.0872 11.6847 10.8696C11.6847 10.652 11.7697 10.4474 11.9236 10.2932C12.2314 9.9854 12.7685 9.98511 13.0764 10.2935C13.2303 10.4474 13.3152 10.652 13.3152 10.8696C13.3152 11.3199 13.6804 11.6848 14.1304 11.6848C14.5805 11.6848 14.9457 11.3199 14.9457 10.8696C14.9457 10.216 14.6909 9.6019 14.2292 9.14043C13.9676 8.87871 13.6541 8.69219 13.3153 8.57222V7.88042C13.3153 7.43008 12.9501 7.06519 12.5 7.06519C12.05 7.06519 11.6848 7.43008 11.6848 7.88042V8.57217C11.346 8.69219 11.0324 8.87856 10.7709 9.14014C10.3092 9.60186 10.0544 10.216 10.0544 10.8695C10.0544 11.5231 10.3092 12.1372 10.7709 12.5987C11.2326 13.0607 11.8467 13.3152 12.5 13.3152C12.7177 13.3152 12.9225 13.4001 13.0764 13.5542C13.2303 13.7082 13.3153 13.9128 13.3153 14.1304C13.3153 14.348 13.2303 14.5526 13.0764 14.7067C12.7686 15.0145 12.2315 15.0148 11.9236 14.7064C11.7698 14.5526 11.6848 14.3479 11.6848 14.1304C11.6848 13.68 11.3196 13.3151 10.8696 13.3151C10.4195 13.3151 10.0543 13.68 10.0543 14.1304C10.0543 14.7839 10.3091 15.398 10.7708 15.8595C11.0324 16.1212 11.3459 16.3078 11.6847 16.4277V17.1195C11.6847 17.5699 12.0499 17.9348 12.5 17.9348C12.95 17.9348 13.3152 17.5699 13.3152 17.1195V16.4278C13.654 16.3078 13.9676 16.1214 14.2291 15.8598C14.6909 15.3981 14.9456 14.784 14.9456 14.1304C14.9456 13.4769 14.6908 12.8627 14.2291 12.4013C13.7674 11.9393 13.1533 11.6848 12.5 11.6848Z" fill="#FF9F19"/>
<path d="M13.0764 10.2934C13.2303 10.4473 13.3152 10.6519 13.3152 10.8695C13.3152 11.3199 13.6804 11.6848 14.1305 11.6848C14.5805 11.6848 14.9457 11.3199 14.9457 10.8695C14.9457 10.216 14.6909 9.60184 14.2292 9.14037C13.9676 8.87865 13.6541 8.69213 13.3153 8.57216V7.88036C13.3153 7.43002 12.9501 7.06512 12.5001 7.06512V10.0621C12.7112 10.0622 12.9225 10.1393 13.0764 10.2934Z" fill="#F28618"/>
<path d="M13.3152 17.1196V16.4278C13.6541 16.3078 13.9676 16.1214 14.2292 15.8599C14.6909 15.3981 14.9457 14.784 14.9457 14.1305C14.9457 13.4769 14.6909 12.8628 14.2292 12.4013C13.7674 11.9393 13.1533 11.6848 12.5 11.6848V13.3152C12.7176 13.3152 12.9225 13.4002 13.0764 13.5543C13.2303 13.7082 13.3152 13.9128 13.3152 14.1304C13.3152 14.348 13.2303 14.5526 13.0764 14.7068C12.9225 14.8607 12.7112 14.9377 12.5 14.9377V17.9348C12.95 17.9348 13.3152 17.5699 13.3152 17.1196Z" fill="#F28618"/>
</g>
<defs>
<clipPath id="clip0_14_409">
<rect width="25" height="25" fill="white"/>
</clipPath>
</defs>
</svg>
