<svg width="25" height="25" viewBox="0 0 25 25" fill="none" xmlns="http://www.w3.org/2000/svg">
<path d="M0 8.40515L12.5 23.0603L6.94445 8.40515H0Z" fill="#82C8DC"/>
<path d="M18.0555 8.40515L12.5 23.0603L25 8.40515H18.0555Z" fill="#B4E6F0"/>
<path d="M12.5 8.40515H18.0556L12.5 1.93964L6.94446 8.40515H12.5Z" fill="#D9FFFF"/>
<path d="M12.5 8.40515H6.94446L12.5 23.0603L18.0556 8.40515H12.5Z" fill="#A0DCE6"/>
<path d="M5.60345 1.93964L0 8.40515H6.94445L5.60345 1.93964Z" fill="#A0DCE6"/>
<path d="M25 8.40515L19.3965 1.93964L18.0555 8.40515H25Z" fill="#EBFFFF"/>
<path d="M19.3966 1.93964H12.5L18.0555 8.40515L19.3966 1.93964Z" fill="#B4E6F0"/>
<path d="M12.5 1.93964H5.60345L6.94446 8.40515L12.5 1.93964Z" fill="#B4E6F0"/>
</svg>
