<svg width="45" height="45" viewBox="0 0 45 45" fill="none" xmlns="http://www.w3.org/2000/svg">
<path d="M28.6963 5.66895L23.4229 0.395508C23.1856 0.131836 22.8426 0 22.5 0C22.1574 0 21.8144 0.131836 21.5772 0.395508L16.3037 5.66895C15.9082 6.03802 15.8028 6.5918 16.0136 7.0927C16.2248 7.59361 16.6992 7.91016 17.2266 7.91016H19.8633V17.5781C19.8633 18.3163 20.4432 18.8965 21.1817 18.8965H23.8184C24.5569 18.8965 25.1367 18.3163 25.1367 17.5781V7.91016H27.7734C28.3008 7.91016 28.7753 7.59361 28.9864 7.0927C29.1972 6.5918 29.0918 6.03802 28.6963 5.66895Z" fill="#64E1DC"/>
<path d="M28.9864 7.0927C28.7753 7.59361 28.3008 7.91016 27.7734 7.91016H25.1367V17.5781C25.1367 18.3163 24.5568 18.8965 23.8184 18.8965H22.5V0C22.8426 0 23.1856 0.131836 23.4229 0.395508L28.6963 5.66895C29.0918 6.03802 29.1972 6.5918 28.9864 7.0927Z" fill="#00C8C8"/>
<path d="M22.5 15.9961C14.5105 15.9961 7.99805 22.5086 7.99805 30.498C7.99805 38.4872 14.5105 45 22.5 45C30.4895 45 37.002 38.4872 37.002 30.498C37.002 22.5086 30.4895 15.9961 22.5 15.9961Z" fill="#FFDA2D"/>
<path d="M37.002 30.498C37.002 38.4872 30.4895 45 22.5 45V15.9961C30.4895 15.9961 37.002 22.5086 37.002 30.498Z" fill="#FDBF00"/>
<path d="M26.4286 33.5303C26.4286 35.2441 25.3479 36.6679 23.8184 37.2217V38.4082C23.8184 39.1463 23.2385 39.7266 22.5 39.7266C21.7615 39.7266 21.1816 39.1463 21.1816 38.4082V37.2481C19.6521 36.6943 18.5185 35.2441 18.5185 33.5303C18.5185 32.7921 19.1248 32.2119 19.8369 32.2119C20.5753 32.2119 21.1552 32.7921 21.1552 33.5303C21.1552 34.2423 21.7615 34.8486 22.4736 34.8486H22.5C23.2385 34.8222 23.7919 34.2423 23.7919 33.5303C23.7919 32.7921 23.2385 32.2383 22.5 32.2119H22.4736C20.3117 32.2119 18.5185 30.4187 18.5185 28.2568C18.5185 26.5165 19.6525 25.0663 21.1816 24.539V22.5879C21.1816 21.8494 21.7615 21.2695 22.5 21.2695C23.2385 21.2695 23.8184 21.8494 23.8184 22.5879V24.539C25.3479 25.0928 26.4286 26.543 26.4286 28.2568C26.4286 28.9689 25.8488 29.5752 25.1103 29.5752C24.3982 29.5752 23.7919 28.9689 23.7919 28.2568C23.7919 27.5187 23.2385 26.9649 22.5 26.9385H22.4736C21.7615 26.9385 21.1552 27.5187 21.1552 28.2568C21.1552 28.9689 21.7615 29.5752 22.4736 29.5752H22.5C24.6887 29.6016 26.4286 31.3419 26.4286 33.5303Z" fill="#FDBF00"/>
<path d="M26.4286 33.5303C26.4286 35.2441 25.3479 36.6679 23.8184 37.2217V38.4082C23.8184 39.1463 23.2385 39.7266 22.5 39.7266V34.8486C23.2385 34.8222 23.7919 34.2423 23.7919 33.5303C23.7919 32.7921 23.2385 32.2383 22.5 32.2119V29.5752C24.6887 29.6016 26.4286 31.3419 26.4286 33.5303Z" fill="#FF9100"/>
<path d="M26.4286 28.2568C26.4286 28.9689 25.8488 29.5752 25.1103 29.5752C24.3982 29.5752 23.7919 28.9689 23.7919 28.2568C23.7919 27.5187 23.2385 26.9649 22.5 26.9385V21.2695C23.2385 21.2695 23.8184 21.8494 23.8184 22.5879V24.539C25.3479 25.0928 26.4286 26.543 26.4286 28.2568Z" fill="#FF9100"/>
</svg>
