<svg width="150" height="146" viewBox="0 0 150 146" fill="none" xmlns="http://www.w3.org/2000/svg">
<path d="M149.994 81.4534L149.931 90.9215L64.4348 140.639L0 103.421L0.0623677 93.9216L85.559 44.2361L149.994 81.4534Z" fill="#DEDFFB"/>
<path d="M150 81.4474L149.94 90.9346L64.4384 140.623L64.4982 131.136L150 81.4474Z" fill="#E9E7FC"/>
<path d="M64.4981 131.136L64.4382 140.623L0.00616455 103.423L0.0660409 93.9358L64.4981 131.136Z" fill="#DEDFFB"/>
<path d="M149.994 86.047L149.931 95.5467L64.4348 145.232L0 108.046L0.0623677 98.5465L64.4972 135.733L149.994 86.047Z" fill="#DBA660"/>
<path d="M150 86.0573L149.94 95.5444L64.4384 145.233L64.4982 135.746L150 86.0573Z" fill="#DBA660"/>
<path d="M64.4981 135.746L64.4382 145.233L0.00616455 108.033L0.0660409 98.5457L64.4981 135.746Z" fill="#BF7D5A"/>
<path d="M150 81.4472L64.498 131.135L0.065979 93.9356L85.5678 44.2473L150 81.4472Z" fill="#F3F1FC"/>
<path d="M137.369 76.8281L137.213 83.7656L85.5277 113.827H46.6543L14.9681 95.5152L15.093 88.5777L86.1838 47.267L137.369 76.8281Z" fill="#FFDE9B"/>
<path d="M137.358 76.824L137.213 83.7782L85.5182 113.82L85.6637 106.865L137.358 76.824Z" fill="#FFD06C"/>
<path d="M85.6638 106.866L85.5182 113.82L46.645 113.819L46.7905 106.865L85.6638 106.866Z" fill="#FEBC1F"/>
<path d="M46.7905 106.864L46.645 113.819L14.9626 95.5267L15.1081 88.5725L46.7905 106.864Z" fill="#FFD06C"/>
<path d="M137.358 76.8243L85.6637 106.866L46.7904 106.864L15.108 88.5725L86.1743 47.2733L137.358 76.8243Z" fill="#FFDE9B"/>
<path d="M85.4423 0L17.6945 39.3706L17.5557 88.3036L47.7589 105.741L84.8169 105.742L134.098 77.1037L134.236 28.1711L85.4423 0Z" fill="#497BFE"/>
<path d="M134.236 28.1711L134.097 77.104L84.8168 105.743L84.9555 56.8099L134.236 28.1711Z" fill="#497BFE"/>
<path d="M84.9556 56.8097L84.8169 105.743L47.7587 105.741L47.8975 56.8083L84.9556 56.8097Z" fill="#566DF9"/>
<path d="M47.8975 56.8083L47.7588 105.741L17.5557 88.3034L17.6945 39.3706L47.8975 56.8083Z" fill="#497BFE"/>
<path d="M134.236 28.1711L84.9557 56.8099L47.8976 56.8085L17.6945 39.3708L85.4424 0L134.236 28.1711Z" fill="#57B3FE"/>
<path d="M85.448 3.85388V8.67753L123.419 30.6003L127.583 28.1805L85.448 3.85388Z" fill="#497BFE"/>
<path d="M24.3482 39.3614L28.512 41.7653L85.448 8.67753V3.85388L24.3482 39.3614Z" fill="#497BFE"/>
<path d="M84.0572 53.4748L123.419 30.6002L85.4481 8.67743L28.512 41.7652L48.7912 53.4733L84.0572 53.4748Z" fill="#FFD06C"/>
<path d="M127.134 52.6301L126.874 52.7769V52.4796L127.134 52.6301Z" fill="#D6D4D2"/>
<path d="M96.2963 90.6097L96.048 90.4667L96.2926 90.3237L96.2963 90.6097Z" fill="white"/>
<path d="M96.2963 90.6097L96.048 90.4667L96.2926 90.3237L96.2963 90.6097Z" fill="#D6D4D2"/>
<path d="M127.134 52.6301L126.874 52.7769V52.4796L127.134 52.6301Z" fill="white"/>
<path d="M126.874 52.4796L127.134 52.6301L126.874 52.7769V52.4796ZM96.048 90.4667L96.2926 90.3237L96.2963 90.6097L96.048 90.4667Z" fill="#434240"/>
<path d="M129.682 51.1419L128.089 72.7036L96.4023 90.984L96.361 71.1453L128.151 50.2668L129.682 51.1419Z" fill="#434240"/>
<path d="M129.757 73.6573L128.1 72.6945L128.038 50.937L129.695 51.8999L129.757 73.6573Z" fill="#E9E7FC"/>
<path d="M131.079 49.5031L129.422 48.5399L93.3112 69.3883L93.3819 94.3396L95.0388 95.3024L131.15 74.454L131.079 49.5031ZM128.1 72.6943L96.4173 90.9862L96.3611 71.1453L129.695 51.8998L129.757 73.6575L128.1 72.6943Z" fill="#DEDFFB"/>
<path d="M96.4227 92.9027L94.7658 91.9399L128.1 72.6945L129.757 73.6573L96.4227 92.9027Z" fill="white"/>
<path d="M95.0388 95.3027L93.3819 94.3398L93.3112 69.3888L94.9681 70.3517L95.0388 95.3027Z" fill="#E9E7FC"/>
<path d="M94.9681 70.3514L93.3112 69.3885L129.422 48.5399L131.079 49.5028L94.9681 70.3514Z" fill="white"/>
<path d="M94.968 70.3516L131.079 49.5031L131.149 74.4541L95.0387 95.3027L94.968 70.3516ZM129.757 73.6574L129.695 51.9L96.3609 71.1454L96.4225 92.9028L129.757 73.6574Z" fill="#DEDFFB"/>
<path d="M24.049 59.1413L24.3087 59.288V58.9907L24.049 59.1413Z" fill="#D6D4D2"/>
<path d="M40.8036 88.9898L41.0519 88.8469L40.8074 88.7039L40.8036 88.9898Z" fill="white"/>
<path d="M40.8036 88.9898L41.0519 88.8469L40.8074 88.7039L40.8036 88.9898Z" fill="#D6D4D2"/>
<path d="M24.049 59.1413L24.3087 59.288V58.9907L24.049 59.1413Z" fill="white"/>
<path d="M21.7608 55.051L20.104 56.0138L20.0332 80.9647L42.061 93.6824L43.7179 92.7196L43.7886 67.7687L21.7608 55.051ZM23.0829 79.2055L23.1392 59.3645L40.7389 69.5253L40.6826 89.3662L23.0829 79.2055Z" fill="#DEDFFB"/>
<path d="M21.4261 80.1684L23.0831 79.2056L23.1447 57.4481L21.4878 58.411L21.4261 80.1684Z" fill="#F3F1FC"/>
<path d="M40.6772 91.283L42.3342 90.3202L23.083 79.2056L21.4261 80.1686C28.2696 84.6163 34.7778 88.4801 40.6772 91.283Z" fill="white"/>
<path d="M42.0612 93.6829L43.7181 92.7198L43.7889 67.7688L42.132 68.7316C41.8932 76.8303 41.8804 85.1582 42.0612 93.6829Z" fill="#F3F1FC"/>
<path d="M42.1319 68.7317L43.7888 67.7689L21.7608 55.051L20.1039 56.0139L42.1319 68.7317Z" fill="white"/>
<path d="M42.0611 93.6828L20.0332 80.9649L20.1039 56.0139L42.1319 68.7317L42.0611 93.6828ZM21.4261 80.1683L40.6773 91.2829L40.7389 69.5255L21.4878 58.4109L21.4261 80.1683Z" fill="#DEDFFB"/>
<path d="M129.149 39.6746L129.152 41.4235L89.4192 64.3631L89.4164 62.6141L129.149 39.6746Z" fill="#005E87"/>
<path d="M109.433 69.4777C109.438 71.1646 108.253 73.2197 106.783 74.068C105.314 74.9164 104.119 74.2355 104.114 72.5486L109.433 69.4777Z" fill="#C4C2C0"/>
<path d="M104.114 72.5487C104.119 74.2357 102.932 76.2915 101.464 77.1391C99.9936 77.9882 98.7989 77.3074 98.7941 75.6204L104.114 72.5487Z" fill="#5EC363"/>
<path d="M114.754 66.406C114.759 68.093 113.572 70.1488 112.104 70.9964C110.633 71.8455 109.438 71.1647 109.433 69.4777L114.754 66.406Z" fill="#5EC363"/>
<path d="M136.033 54.1207C136.037 55.8077 134.85 57.8635 133.382 58.7111C131.913 59.5594 130.718 58.8786 130.714 57.1917L136.033 54.1207Z" fill="#5EC363"/>
<path d="M130.714 57.1918C130.718 58.8787 129.531 60.9345 128.062 61.7829C126.593 62.6312 125.398 61.9504 125.393 60.2635L130.714 57.1918Z" fill="#C4C2C0"/>
<path d="M125.393 60.2634C125.398 61.9504 124.211 64.0062 122.743 64.8538C121.272 65.7029 120.079 65.0213 120.074 63.3344L125.393 60.2634Z" fill="#5EC363"/>
<path d="M120.074 63.3342C120.079 65.0212 118.892 67.077 117.423 67.9253C115.953 68.7737 114.759 68.0929 114.754 66.4059L120.074 63.3342Z" fill="#C4C2C0"/>
<path d="M90.0512 62.9992L95.578 59.7874L104.318 72.5976L98.7916 75.8095L90.0512 62.9992Z" fill="#78E75A"/>
<path d="M95.3426 59.9241L100.869 56.7123L109.61 69.5226L104.083 72.7344L95.3426 59.9241Z" fill="white"/>
<path d="M100.634 56.8493L106.161 53.6375L114.901 66.4477L109.374 69.6596L100.634 56.8493Z" fill="#78E75A"/>
<path d="M105.925 53.7745L111.452 50.5626L120.192 63.3729L114.665 66.5847L105.925 53.7745Z" fill="white"/>
<path d="M111.216 50.699L116.743 47.4872L125.484 60.2975L119.957 63.5093L111.216 50.699Z" fill="#78E75A"/>
<path d="M116.508 47.6242L122.035 44.4124L130.775 57.2226L125.248 60.4345L116.508 47.6242Z" fill="white"/>
<path d="M121.799 44.5491L127.326 41.3373L136.066 54.1476L130.539 57.3594L121.799 44.5491Z" fill="#78E75A"/>
<path d="M80.309 69.3914L80.2153 113.827H51.6227L51.7165 69.3914H80.309Z" fill="#F45170"/>
<path d="M77.1842 72.5164L77.0906 86.8907H54.7477L54.8415 72.5164H77.1842Z" fill="white"/>
<path d="M81.0348 113.821L79.3673 113.817L79.4695 70.2223H52.5484L52.4463 113.821L50.7788 113.817L50.8851 68.5548H81.141L81.0348 113.821Z" fill="white"/>
<path d="M99.5718 23.763L99.5615 27.3766L85.5396 35.5253L85.5498 31.9117L99.5718 23.763Z" fill="#D6D4D2"/>
<path d="M85.5498 31.9115L85.5396 35.5251L71.4259 27.3766L71.4361 23.763L85.5498 31.9115Z" fill="#E9E8E6"/>
<path d="M99.5718 23.7631L85.5499 31.9117L71.4362 23.7632L85.4581 15.6145L99.5718 23.7631Z" fill="white"/>
<path d="M89.0879 21.7002C91.0547 22.8357 91.0925 24.7125 89.1385 25.848C87.1575 26.9992 83.9173 26.9835 81.9506 25.848C79.9293 24.681 79.9188 22.82 81.8999 21.6687C83.8538 20.5332 87.0666 20.5332 89.0879 21.7002Z" fill="#434240"/>
<path d="M40.7482 69.5165L40.6856 89.359L23.0926 79.2032L23.1551 59.3607L40.7482 69.5165Z" fill="#4C5C75"/>
<path d="M19.9764 46.642L19.9738 48.2971L47.1404 63.9818L47.1431 62.3267L19.9764 46.642Z" fill="#005E87"/>
<path d="M32.8564 71.5105C32.8519 73.107 33.9751 75.0525 35.3645 75.8547C36.7563 76.6582 37.8869 76.0139 37.8914 74.4175L32.8564 71.5105Z" fill="#5EC363"/>
<path d="M12.7188 59.8842C12.7143 61.4806 13.8376 63.4262 15.2269 64.2283C16.6175 65.0312 17.7481 64.3869 17.7526 62.7904L12.7188 59.8842Z" fill="#5EC363"/>
<path d="M17.7528 62.7904C17.7482 64.3869 18.8715 66.3324 20.2621 67.1353C21.6526 67.9381 22.7832 67.2938 22.7878 65.6974L17.7528 62.7904Z" fill="#C4C2C0"/>
<path d="M22.7875 65.6975C22.783 67.294 23.9062 69.2395 25.2956 70.0417C26.6874 70.8452 27.8167 70.2002 27.8213 68.6038L22.7875 65.6975Z" fill="#5EC363"/>
<path d="M27.8214 68.6033C27.8168 70.1997 28.9401 72.1453 30.3307 72.9481C31.7212 73.751 32.8518 73.1067 32.8564 71.5102L27.8214 68.6033Z" fill="#C4C2C0"/>
<path d="M46.2192 62.4662L40.9888 59.4266L32.7172 71.5499L37.9476 74.5894" fill="#78E75A"/>
<path d="M41.2117 59.5564L35.9813 56.5168L27.7097 68.6401L32.9401 71.6796L41.2117 59.5564Z" fill="white"/>
<path d="M36.2041 56.6464L30.9737 53.6068L22.7021 65.73L27.9325 68.7696L36.2041 56.6464Z" fill="#78E75A"/>
<path d="M31.1965 53.7364L25.9661 50.6968L17.6945 62.82L22.9249 65.8596L31.1965 53.7364Z" fill="white"/>
<path d="M26.189 50.8263L20.9586 47.7867L12.687 59.91L17.9174 62.9495L26.189 50.8263Z" fill="#78E75A"/>
</svg>
