<!-- icon666.com - MILLIONS vector ICONS FREE --><svg xmlns="http://www.w3.org/2000/svg" viewBox="0 0 32 32"><g id="Layer_14" data-name="Layer 14" fill="#565656"><path d="M30,7V3a1,1,0,0,0-1-1H3A1,1,0,0,0,2,3V7a4.979,4.979,0,0,0,2,3.978c0,.008,0,.014,0,.022V28H3a1,1,0,0,0,0,2H29a1,1,0,0,0,0-2H28V11c0-.008,0-.014,0-.022A4.979,4.979,0,0,0,30,7ZM10,28V19a1,1,0,0,1,1-1h2a1,1,0,0,1,1,1v9ZM26,16H19a1,1,0,0,0-1,1v8a1,1,0,0,0,1,1h4a1,1,0,0,0,0-2H20V18h6V28H16V19a3,3,0,0,0-3-3H11a3,3,0,0,0-3,3v9H6V11.9A5,5,0,0,0,7,12H9a4.963,4.963,0,0,0,3-1.018A4.963,4.963,0,0,0,15,12h2a4.963,4.963,0,0,0,3-1.018A4.963,4.963,0,0,0,23,12h2a5,5,0,0,0,1-.1Zm2-9a3,3,0,0,1-3,3H23a2.959,2.959,0,0,1-2.248-1.038,1,1,0,0,0-1.5,0A2.959,2.959,0,0,1,17,10H15a2.959,2.959,0,0,1-2.248-1.038,1.031,1.031,0,0,0-1.5,0A2.959,2.959,0,0,1,9,10H7A3,3,0,0,1,4,7V4H28Z"></path></g></svg>