<svg width="40" height="40" viewBox="0 0 40 40" fill="none" xmlns="http://www.w3.org/2000/svg">
<path d="M20 40C31.0457 40 40 31.0457 40 20C40 8.9543 31.0457 0 20 0C8.9543 0 0 8.9543 0 20C0 31.0457 8.9543 40 20 40Z" fill="#FFB84D"/>
<path d="M39.9995 20.0363L27.7057 7.7425C26.0546 7.08821 24.1007 7.42829 22.765 8.76407C21.5062 10.0228 21.1323 11.8303 21.6407 13.4163L19.2471 15.7917L12.4529 8.99766L9.31965 7.17297L7.89801 8.59461L9.72269 11.7279L16.5168 18.522L16.5311 18.5259L11.0686 23.9884C9.92871 23.7871 8.71145 24.1249 7.8327 25.0037C6.40277 26.4336 6.40277 28.7603 7.8327 30.1902L17.5016 39.8448C18.3201 39.9469 19.1538 40 20 40C31.0336 40 39.9799 31.0652 39.9995 20.0363Z" fill="#FF8900"/>
<path d="M9.72276 11.7279L7.89807 8.59461L9.31979 7.17297L12.4531 8.99766L13.053 11.152L13.0498 11.1552L23.3782 21.4836L22.2081 22.6537L11.8798 12.3253L11.8772 12.3279L9.72276 11.7279Z" fill="#CFFFFB"/>
<path d="M9.72315 11.7278L11.8771 12.3277L11.8795 12.3254L22.2083 22.6542L22.7937 22.0688L8.60909 7.88428L7.89807 8.59521L9.72315 11.7278Z" fill="#00EFD1"/>
<path d="M24.0727 20.0608L20.7859 23.3477L22.1553 24.7171L25.4421 21.4302L24.0727 20.0608Z" fill="#FFDF47"/>
<path d="M23.7988 23.0743L22.4292 21.7047L20.7861 23.3478L22.1556 24.7174L23.7988 23.0743Z" fill="#FFD400"/>
<path d="M31.1295 31.8087L32.5339 30.4043C33.475 29.4632 33.475 27.9232 32.5339 26.9821L26.1404 20.5886L21.3137 25.4153L27.7072 31.8088C28.6483 32.7499 30.1883 32.7499 31.1295 31.8087Z" fill="#9330B2"/>
<path d="M21.3132 25.4151L27.6088 31.7106C28.6037 32.7055 30.2325 32.7055 31.2279 31.7101L31.8314 31.1066L23.7267 23.0017L21.3132 25.4151Z" fill="#5C1B6F"/>
<path d="M14.0345 26.9543L24.6066 16.3821C26.1927 16.8905 28.0001 16.5166 29.2589 15.2579C30.5947 13.9221 30.9348 11.9683 30.2805 10.3171L27.8008 12.7968L25.3823 12.6407L25.2262 10.2221L27.7059 7.7424C26.0547 7.08811 24.1009 7.42818 22.7651 8.76397C21.5063 10.0227 21.1324 11.8302 21.6409 13.4162L11.0687 23.9885C9.92883 23.7872 8.71157 24.125 7.83282 25.0037C6.4029 26.4337 6.4029 28.7604 7.83282 30.1903C9.26274 31.6202 11.5894 31.6202 13.0194 30.1903C13.8981 29.3114 14.2359 28.0941 14.0345 26.9543ZM8.82024 29.2027C7.93485 28.3173 7.93485 26.8766 8.82032 25.9912C9.70571 25.1058 11.1464 25.1058 12.0319 25.9912C12.9173 26.8766 12.9173 28.3173 12.0319 29.2027C11.1463 30.0882 9.70563 30.0882 8.82024 29.2027Z" fill="white"/>
<path d="M14.0343 26.954L24.6063 16.382C26.193 16.8906 27.9998 16.5166 29.2588 15.2577C30.5944 13.9221 30.9344 11.9683 30.2805 10.3168L27.8004 12.7969L25.3823 12.6411L12.0319 25.9914C12.9173 26.8769 12.9173 28.3176 12.0319 29.2031C11.1464 30.0886 9.70609 30.0881 8.82062 29.2026L7.83289 30.1903C9.26281 31.6202 11.5891 31.6202 13.0191 30.1903C13.8981 29.3112 14.2357 28.094 14.0343 26.954Z" fill="#FFF5CB"/>
</svg>
