<svg width="40" height="40" viewBox="0 0 40 40" fill="none" xmlns="http://www.w3.org/2000/svg">
<path d="M20 40C31.0457 40 40 31.0457 40 20C40 8.95431 31.0457 0 20 0C8.95431 0 0 8.95431 0 20C0 31.0457 8.95431 40 20 40Z" fill="#F8CF95"/>
<path d="M29.0709 9.66931L28.189 10.5827L12.252 29.0394L11.0551 29.6063L21.5118 39.9685C31.685 39.2126 39.7165 30.8347 39.9685 20.5355L29.0709 9.66931Z" fill="#E4B174"/>
<path d="M29.0079 29.4488L14.5827 31.559V8.44092L29.0079 9.60627V29.4488Z" fill="#B92A27"/>
<path d="M10.9921 29.4488L14.5827 31.559V8.44092L10.9921 9.60627V29.4488Z" fill="#A41E23"/>
<path d="M22.0787 24.1574C21.2598 23.622 20.4409 23.0236 19.7795 22.2047C20.6929 21.6693 21.4803 21.2283 22.0787 20.5984C22.6456 21.1968 23.433 21.5748 24.2519 22.0472C23.6535 22.8976 22.8661 23.5275 22.0787 24.1574Z" fill="#99A899"/>
<path d="M24.7559 26.3622C24.126 25.5433 23.3385 25.0079 22.5511 24.4724C23.3385 23.8425 24.126 23.1811 24.7559 22.2992C25.5748 22.7716 26.4252 23.3386 27.1811 24.189C26.4252 25.1338 25.5748 25.7953 24.7559 26.3622Z" fill="#99A899"/>
<path d="M19.2756 26.7716C18.3307 26.2992 17.3228 25.7323 16.4409 24.7874C17.3543 23.7165 18.3622 23.0236 19.3071 22.4567C20 23.3386 20.8189 23.9055 21.6693 24.4724C20.8189 25.1338 19.9685 25.8267 19.2756 26.7716Z" fill="#99A899"/>
<path d="M22.1102 28.3149C21.5118 27.7795 20.6929 27.433 19.811 27.0236C20.4724 26.1102 21.3228 25.4173 22.1417 24.7874C22.9606 25.3228 23.7165 25.8582 24.3464 26.6456C23.496 27.1811 22.7086 27.685 22.1102 28.3149Z" fill="#99A899"/>
<path d="M16.4409 22.8346V24.8188C16.4409 24.8188 17.4488 25.9527 19.2756 26.8031V24.8818L18.8346 23.7795L16.4409 22.8346Z" fill="#819281"/>
<path d="M27.1496 22.4252V24.189C27.1496 24.189 25.8898 25.7638 24.7559 26.3622V23.874L27.1496 22.4252Z" fill="#99A899"/>
<path d="M19.7795 20.2834V22.2047C19.7795 22.2047 20.5984 23.2126 22.0788 24.1575V22.0157L20.9449 20.5984L19.7795 20.2834Z" fill="#819281"/>
<path d="M24.252 20.2205V22.0472C24.252 22.0472 23.4016 23.2126 22.0472 24.1575V21.7008L24.252 20.2205Z" fill="#99A899"/>
<path d="M21.6693 22.6141V24.4094C21.6693 24.4094 20.5354 25.2283 19.3071 26.7716V24.6299L20.126 22.6141H21.6693Z" fill="#99A899"/>
<path d="M19.811 25.1338V27.0551C19.811 27.0551 21.2599 27.559 22.1102 28.3464V26.2362L20.8189 24.7244L19.811 25.1338Z" fill="#819281"/>
<path d="M22.5197 22.6141V24.4724C22.5197 24.4724 23.9685 25.2283 24.7244 26.3622V24L22.5197 22.6141Z" fill="#819281"/>
<path d="M24.315 24.8189V26.6456C24.315 26.6456 22.6457 27.685 22.1102 28.3149V26.2047L23.7795 24.6614L24.315 24.8189Z" fill="#99A899"/>
<path d="M22.0787 22.2992C21.2598 21.7322 20.4409 21.1338 19.7795 20.2834C20.6929 19.7795 21.4803 19.3385 22.0787 18.7401C22.6456 19.3385 23.433 19.748 24.2519 20.2204C23.6535 21.0708 22.8661 21.6692 22.0787 22.2992Z" fill="#ECECEC"/>
<path d="M24.7559 24.5669C24.126 23.748 23.3385 23.1811 22.5511 22.6141C23.3385 21.9842 24.126 21.3543 24.7559 20.4724C25.5748 20.9449 26.4252 21.5433 27.1811 22.4252C26.4252 23.37 25.5748 24 24.7559 24.5669Z" fill="#ECECEC"/>
<path d="M19.2756 24.8819C18.3307 24.4094 17.3228 23.811 16.4409 22.8346C17.3543 21.7952 18.3622 21.1023 19.3071 20.5669C20 21.4488 20.8189 22.0472 21.6693 22.6141C20.8189 23.2441 19.9685 23.937 19.2756 24.8819Z" fill="#ECECEC"/>
<path d="M22.1102 26.4566C21.5118 25.9212 20.6929 25.5433 19.811 25.1023C20.4724 24.1889 21.3228 23.5275 22.1417 22.8976C22.9606 23.433 23.7165 23.9999 24.3464 24.7873C23.496 25.3543 22.7086 25.8267 22.1102 26.4566Z" fill="#ECECEC"/>
<path d="M12.8504 26.6141C12.6615 26.3307 12.4725 26.0472 12.3465 25.6063C12.5355 25.3228 12.7244 25.1023 12.8504 24.7874C12.9764 25.0708 13.1654 25.2913 13.3229 25.5118C13.1969 25.9527 13.0394 26.2992 12.8504 26.6141Z" fill="#99A899"/>
<path d="M13.4488 27.7479C13.3228 27.3385 13.1339 27.055 12.9449 26.7716C13.1339 26.4566 13.2913 26.1101 13.4488 25.6692C13.6378 25.9212 13.8268 26.2046 13.9843 26.6456C13.8268 27.118 13.6378 27.4645 13.4488 27.7479Z" fill="#99A899"/>
<path d="M12.2205 27.9684C12 27.7479 11.7796 27.433 11.5906 26.9605C11.811 26.4251 12.0315 26.0471 12.2205 25.7637C12.378 26.2046 12.567 26.5196 12.7559 26.803C12.567 27.118 12.378 27.4645 12.2205 27.9684Z" fill="#99A899"/>
<path d="M12.8504 28.7558C12.7244 28.4724 12.5355 28.3149 12.3465 28.0944C12.504 27.622 12.693 27.2755 12.8504 26.9606C13.0394 27.244 13.1969 27.496 13.3544 27.9055C13.1654 28.1574 12.9764 28.4094 12.8504 28.7558Z" fill="#99A899"/>
<path d="M11.5906 25.9528V26.9606C11.5906 26.9606 11.811 27.5276 12.2205 27.9685V26.9921L12.126 26.4252L11.5906 25.9528Z" fill="#819281"/>
<path d="M13.9842 25.7323V26.6457C13.9842 26.6457 13.7008 27.4646 13.4488 27.748V26.4567L13.9842 25.7323Z" fill="#99A899"/>
<path d="M12.3464 24.6299V25.6063C12.3464 25.6063 12.5354 26.1102 12.8504 26.6141V25.5118L12.5984 24.7874L12.3464 24.6299Z" fill="#819281"/>
<path d="M13.3228 24.5984V25.5118C13.3228 25.5118 13.1339 26.1102 12.8189 26.5826V25.3228L13.3228 24.5984Z" fill="#99A899"/>
<path d="M12.7559 25.8268V26.7402C12.7559 26.7402 12.5039 27.1496 12.2205 27.937V26.8347L12.4094 25.7953L12.7559 25.8268Z" fill="#99A899"/>
<path d="M12.3464 27.1182V28.0946C12.3464 28.0946 12.6614 28.3465 12.8504 28.756V27.6851L12.5669 26.9292L12.3464 27.1182Z" fill="#819281"/>
<path d="M12.9449 25.8268V26.7717C12.9449 26.7717 13.2598 27.1496 13.4488 27.748V26.5512L12.9449 25.8268Z" fill="#819281"/>
<path d="M13.3543 26.9606V27.874C13.3543 27.874 12.9764 28.4094 12.8504 28.7244V27.6535L13.2284 26.8661L13.3543 26.9606Z" fill="#99A899"/>
<path d="M12.8504 25.6693C12.6615 25.3858 12.4725 25.0709 12.3465 24.6299C12.5355 24.378 12.7244 24.126 12.8504 23.8425C12.9764 24.1575 13.1654 24.3465 13.3229 24.5984C13.1969 25.0394 13.0394 25.3543 12.8504 25.6693Z" fill="#ECECEC"/>
<path d="M13.4488 26.8346C13.3228 26.4252 13.1339 26.1102 12.9449 25.8267C13.1339 25.5118 13.2913 25.1968 13.4488 24.7559C13.6378 25.0078 13.8268 25.2913 13.9843 25.7637C13.8268 26.2047 13.6378 26.5511 13.4488 26.8346Z" fill="#ECECEC"/>
<path d="M12.2205 26.9921C12 26.7401 11.7796 26.4566 11.5906 25.9527C11.811 25.4173 12.0315 25.0708 12.2205 24.7874C12.378 25.2283 12.567 25.5433 12.7559 25.8267C12.567 26.1417 12.378 26.4881 12.2205 26.9921Z" fill="#ECECEC"/>
<path d="M12.8504 27.811C12.7244 27.5276 12.5355 27.3386 12.3465 27.1181C12.504 26.6457 12.693 26.3307 12.8504 25.9843C13.0394 26.2677 13.1969 26.5512 13.3544 26.9606C13.1654 27.2441 12.9764 27.4646 12.8504 27.811Z" fill="#ECECEC"/>
<path d="M17.6359 12.126L26.3138 12.6284L26.332 12.314L17.6541 11.8116L17.6359 12.126Z" fill="#7AB0B9"/>
<path d="M26.3307 13.8898H17.6378V14.2047H26.3307V13.8898Z" fill="#7AB0B9"/>
<path d="M15.811 28.8503C15.937 28.8503 16.0945 28.8188 16.2835 28.8188C16.5039 28.8188 16.6614 28.8503 16.7559 28.9133C16.8504 28.9763 16.8819 29.0393 16.8819 29.1338C16.8819 29.2283 16.8504 29.3228 16.7559 29.3858C16.6614 29.4803 16.4725 29.5433 16.252 29.5433C16.189 29.5433 16.126 29.5433 16.063 29.5433V30.0157L15.811 30.0787V28.8503ZM16.0315 29.4173C16.0945 29.4173 16.1575 29.4173 16.2205 29.4173C16.4725 29.3858 16.6299 29.2913 16.6299 29.1338C16.6299 28.9763 16.4725 28.9133 16.2205 28.9133C16.126 28.9133 16.0315 28.9133 16 28.9448V29.4173H16.0315Z" fill="#C2E7F3"/>
<path d="M17.0709 29.3543C17.0709 29.2598 17.0709 29.1968 17.0709 29.1023H17.2283V29.2598C17.2598 29.1653 17.3858 29.1023 17.5118 29.0708C17.5433 29.0708 17.5433 29.0708 17.5748 29.0708V29.1968C17.5433 29.1968 17.5433 29.1968 17.5118 29.1968C17.3858 29.1968 17.2913 29.2913 17.2598 29.3858C17.2598 29.4173 17.2598 29.4173 17.2598 29.4488V29.8582L17.0709 29.8897V29.3543Z" fill="#C2E7F3"/>
<path d="M18.4567 29.3858C18.4567 29.6377 18.2677 29.7637 18.0788 29.7637C17.8583 29.7952 17.6693 29.6692 17.6693 29.4488C17.6693 29.1968 17.8583 29.0708 18.1103 29.0393C18.2992 29.0708 18.4567 29.1968 18.4567 29.3858ZM17.7953 29.4488C17.7953 29.6062 17.8898 29.7007 18.0473 29.7007C18.1732 29.6692 18.2992 29.5747 18.2992 29.4173C18.2992 29.2913 18.2362 29.1653 18.0788 29.1653C17.8898 29.1653 17.7953 29.3228 17.7953 29.4488Z" fill="#C2E7F3"/>
<path d="M19.1496 28.7874V29.4803C19.1496 29.5433 19.1496 29.5748 19.1496 29.6377H19.0551V29.5433C19.0236 29.6063 18.9607 29.6692 18.8347 29.7007C18.6772 29.7322 18.5512 29.6063 18.5512 29.4173C18.5512 29.1968 18.7087 29.0708 18.8662 29.0708C18.9607 29.0708 19.0236 29.1023 19.0551 29.1653V28.8188H19.1496V28.7874ZM19.0551 29.2913V29.2598C19.0236 29.1968 18.9922 29.1338 18.8977 29.1338C18.7717 29.1338 18.7087 29.2598 18.7087 29.3858C18.7087 29.5118 18.7717 29.6063 18.8977 29.5748C18.9607 29.5748 19.0551 29.5118 19.0551 29.4173V29.3858V29.2913Z" fill="#C2E7F3"/>
<path d="M19.7796 29.3858C19.7796 29.4488 19.7796 29.4803 19.7796 29.5117H19.7166V29.4173C19.6851 29.4488 19.6536 29.5118 19.5591 29.5432C19.4646 29.5432 19.3701 29.5117 19.3701 29.3228V29.0078H19.4646V29.3228C19.4646 29.4173 19.4961 29.4803 19.5906 29.4803C19.6536 29.4803 19.6851 29.4173 19.7166 29.3858C19.7166 29.3858 19.7166 29.3543 19.7166 29.3228V29.0078H19.8111V29.3858H19.7796Z" fill="#C2E7F3"/>
<path d="M20.2205 29.4488C20.189 29.4488 20.1575 29.4803 20.0945 29.4803C19.9685 29.5118 19.874 29.4173 19.874 29.2598C19.874 29.1023 19.9685 28.9763 20.126 28.9763C20.1575 28.9763 20.2205 28.9763 20.2205 29.0078L20.189 29.0708C20.1575 29.0708 20.1575 29.0393 20.0945 29.0393C20 29.0393 19.937 29.1338 19.937 29.2283C19.937 29.3543 20 29.4173 20.0945 29.3858C20.126 29.3858 20.1575 29.3543 20.189 29.3543L20.2205 29.4488Z" fill="#C2E7F3"/>
<path d="M20.4094 28.8503V28.9763H20.5039V29.0393H20.4094V29.2913C20.4094 29.3543 20.4094 29.3858 20.4724 29.3858C20.5039 29.3858 20.5039 29.3858 20.5039 29.3858V29.4488C20.5039 29.4488 20.4724 29.4803 20.4409 29.4803C20.4094 29.4803 20.3779 29.4803 20.3779 29.4488C20.3464 29.4173 20.3464 29.3858 20.3464 29.3228V29.0708H20.2834V29.0078H20.3464V28.8818L20.4094 28.8503Z" fill="#C2E7F3"/>
</svg>
