<svg width="40" height="40" viewBox="0 0 40 40" fill="none" xmlns="http://www.w3.org/2000/svg">
<rect width="40" height="40" rx="20" fill="#D9D9D9"/>
<path d="M40.0001 20.0001C40.0001 31.0459 31.0459 40.0001 20.0001 40.0001C8.95428 40.0001 0 31.0459 0 20.0001C0 8.95428 8.95428 0 20.0001 0C31.0459 0 40.0001 8.95428 40.0001 20.0001Z" fill="#382B73"/>
<path d="M37.3031 20C37.3031 29.5563 29.5563 37.303 20.0001 37.303C10.4438 37.303 2.69708 29.5563 2.69708 20C2.69708 10.4438 10.4438 2.69702 20.0001 2.69702C29.5563 2.69702 37.3031 10.4438 37.3031 20Z" fill="#473080"/>
<path d="M31.4289 26.3031C31.4221 26.2612 31.4155 26.221 31.407 26.1811C31.3985 26.1408 31.3903 26.1006 31.3802 26.0604C31.3736 26.0319 31.3668 26.0051 31.3586 25.9766C31.3501 25.9449 31.3416 25.9148 31.3318 25.8843C31.32 25.8425 31.3049 25.8006 31.2915 25.7604C31.2798 25.7253 31.2663 25.69 31.2529 25.655C31.2346 25.6082 31.2143 25.5627 31.1944 25.5192C31.1777 25.479 31.159 25.4407 31.1391 25.4005C31.1005 25.3249 31.0602 25.2497 31.0151 25.176C31.0135 25.1724 31.0118 25.1692 31.0102 25.1659C30.9431 25.0586 30.8711 24.9549 30.7939 24.8561C30.422 24.3869 29.923 24.0202 29.3283 23.819L26.0233 22.7054L26.022 22.7047C25.9553 22.6003 25.8558 22.5186 25.7351 22.4786L23.0792 21.6032C23.0776 21.6369 23.0753 21.6719 23.073 21.7062V19.2885C23.5965 18.5253 24.0244 17.6034 24.3208 16.6225C24.4284 16.6919 24.5465 16.739 24.6745 16.7583C25.3242 16.8551 26.0747 15.8766 26.2092 14.9773C26.3433 14.0782 25.8107 13.599 25.1606 13.5018C25.0478 13.4851 24.9355 13.492 24.8263 13.5175L24.875 12.098L25.0373 10.3012C25.0592 10.0578 24.9169 9.82946 24.6889 9.74178L19.2145 7.64373C19.0078 7.56455 18.7739 7.61788 18.6221 7.77852L17.4283 9.04069L16.7003 8.76358C16.4589 8.67165 16.1861 8.76129 16.0464 8.97853L14.7652 10.9703C14.6841 11.0959 14.6586 11.2493 14.6936 11.3949L14.9811 12.5792L15.0675 13.4988C14.9923 13.4903 14.916 13.4907 14.8398 13.5021C14.1898 13.599 13.6568 14.0786 13.7913 14.9776C13.9257 15.8766 14.6759 16.8555 15.326 16.7583C15.4536 16.7393 15.572 16.6919 15.6793 16.6225C15.976 17.6034 16.4039 18.5256 16.9274 19.2885V21.7033C16.9251 21.6696 16.9228 21.6359 16.9212 21.6032L14.2653 22.4786C14.1446 22.5186 14.0455 22.6003 13.9784 22.7047L13.9768 22.705L10.6718 23.819C10.0771 24.0199 9.57815 24.3869 9.20617 24.8558V24.8577C9.16593 24.9078 9.12929 24.9582 9.09232 25.0102C8.88949 25.3017 8.73703 25.6282 8.64183 25.9766C8.63332 26.0051 8.62678 26.0319 8.61991 26.0604C8.60977 26.1006 8.60159 26.1408 8.59308 26.1811C8.5849 26.221 8.57803 26.2612 8.57149 26.3031C8.55808 26.3836 8.54793 26.4673 8.54106 26.5495C8.53452 26.6332 8.53125 26.717 8.53125 26.8007V28.868C8.53125 29.0074 8.57345 29.1441 8.65426 29.2573C9.50258 30.4449 10.5315 31.4948 11.7037 32.3653C14.0219 34.0855 16.893 35.1039 20.0001 35.1039C23.1074 35.1039 25.9785 34.0855 28.2967 32.3653C29.4689 31.4948 30.4979 30.4449 31.3462 29.2573C31.427 29.1441 31.4692 29.0074 31.4692 28.868V26.8007C31.4689 26.6316 31.4554 26.4657 31.4289 26.3031Z" fill="#382B73"/>
<path d="M31.4689 25.6282V27.6952C31.4689 27.8342 31.427 27.9716 31.3452 28.0855C30.4975 29.273 29.469 30.3216 28.2964 31.1928C25.9782 32.913 23.1071 33.9314 20.0001 33.9314C16.8927 33.9314 14.0219 32.913 11.7034 31.1928C10.5309 30.3216 9.5026 29.273 8.65494 28.0855C8.57282 27.9716 8.53094 27.8342 8.53094 27.6952V25.6282C8.53094 25.5444 8.53422 25.4607 8.54109 25.3769C8.54763 25.2948 8.55777 25.2111 8.57119 25.1306C8.57806 25.0887 8.5846 25.0485 8.5931 25.0086C8.60128 24.9683 8.60979 24.9281 8.61993 24.8878C8.62647 24.8594 8.63302 24.8325 8.64152 24.8041C8.73705 24.4557 8.88951 24.1292 9.09202 23.8377C9.12899 23.7856 9.16596 23.7353 9.2062 23.6852V23.6836C9.57785 23.2144 10.0771 22.8477 10.6719 22.6465L13.9765 21.5328L16.8761 20.5546C16.896 20.5478 16.9163 20.5412 16.9363 20.5344C17.9315 20.2062 18.965 20.042 20.0001 20.042C21.0352 20.042 22.0687 20.2062 23.0636 20.5344L23.1241 20.5546L26.0234 21.5328L29.3283 22.6465C29.9231 22.8477 30.422 23.2144 30.794 23.6836V23.6852C30.8712 23.784 30.9431 23.8861 31.0102 23.9934C31.0118 23.9967 31.0135 23.9999 31.0151 24.0035C31.0603 24.0771 31.1005 24.1524 31.1391 24.228C31.1591 24.2682 31.1777 24.3065 31.1944 24.3467C31.2143 24.3902 31.2346 24.4357 31.253 24.4825C31.2664 24.5175 31.2798 24.5528 31.2916 24.5878C31.305 24.6281 31.32 24.67 31.3318 24.7118C31.3416 24.7423 31.3501 24.7723 31.3586 24.8041C31.3668 24.8325 31.3737 24.8594 31.3802 24.8878C31.3904 24.9281 31.3985 24.9683 31.407 25.0086C31.4155 25.0485 31.4221 25.0887 31.429 25.1306C31.4555 25.2932 31.4689 25.4591 31.4689 25.6282Z" fill="#009ADD"/>
<path d="M19.7069 33.9252C19.8044 33.9275 19.9019 33.9314 20 33.9314C20.0982 33.9314 20.1954 33.9275 20.2932 33.9252V31.1705H19.7069V33.9252Z" fill="#1CAEE4"/>
<path d="M23.1241 20.5546C23.1172 20.6633 23.109 20.7722 23.1005 20.8811C23.0956 20.9482 23.0887 21.0169 23.0838 21.0837C23.077 21.1507 23.0704 21.2194 23.0636 21.2881C23.057 21.3519 23.0501 21.417 23.042 21.4808C23.0318 21.5764 23.0217 21.6699 23.0083 21.7655C22.9765 22.0301 22.9379 22.2964 22.8944 22.5663C22.8911 22.5847 22.8879 22.603 22.8862 22.6216C22.8424 22.8928 22.7923 23.1693 22.737 23.4474C22.1992 26.2043 21.1909 29.221 20.0001 32.3401C18.8089 29.221 17.8006 26.2043 17.2631 23.4474C17.2078 23.1693 17.1574 22.8928 17.1139 22.6216C17.1122 22.603 17.109 22.5847 17.1054 22.5663C17.0619 22.2964 17.0236 22.0301 16.9915 21.7655C16.9781 21.6699 16.9683 21.5764 16.9582 21.4808C16.9496 21.417 16.9431 21.3519 16.9362 21.2881C16.9297 21.2194 16.9228 21.1507 16.9163 21.0837C16.9114 21.0169 16.9045 20.9482 16.8996 20.8811C16.8911 20.7722 16.8826 20.6633 16.876 20.5546C17.8896 20.2128 18.9446 20.042 20.0001 20.042C21.0551 20.042 22.1105 20.2128 23.1241 20.5546Z" fill="#136DA0"/>
<path d="M16.8751 20.554C16.9411 21.611 17.1073 22.724 17.3511 23.8798C17.9913 24.6071 18.929 25.0668 19.9742 25.0668H20.0259C21.0712 25.0668 22.0085 24.6071 22.649 23.8798C22.8928 22.7237 23.059 21.611 23.1247 20.554C21.0977 19.8702 18.9025 19.8702 16.8751 20.554Z" fill="#1CAEE4"/>
<path d="M11.7034 31.1928C10.5312 30.3222 9.50227 29.2724 8.65396 28.0848C8.57315 27.9713 8.53094 27.8348 8.53094 27.6955V25.6282C8.53094 25.5444 8.53422 25.4607 8.54109 25.3769C8.54763 25.2948 8.55777 25.211 8.57119 25.1306C8.57806 25.0887 8.5846 25.0484 8.5931 25.0085C8.60128 24.9683 8.60979 24.928 8.61993 24.8878C8.62647 24.8593 8.63302 24.8325 8.64152 24.8041C8.73705 24.4556 8.88951 24.1291 9.09202 23.8376C9.12899 23.7856 9.16596 23.7352 9.2062 23.6852C10.1759 25.9851 11.0134 28.5042 11.7034 31.1928Z" fill="#136DA0"/>
<path d="M31.4689 25.6281V27.6954C31.4689 27.8348 31.4267 27.9715 31.3459 28.0847C30.4976 29.2723 29.4686 30.3221 28.2964 31.1927C28.9867 28.5041 29.8243 25.9831 30.794 23.6835C30.8712 23.7823 30.9431 23.886 31.0102 23.9933C31.0118 23.9966 31.0135 23.9998 31.0151 24.0034C31.0603 24.077 31.1005 24.1523 31.1391 24.2279C31.1591 24.2681 31.1777 24.3064 31.1944 24.3466C31.2144 24.3901 31.2346 24.4356 31.253 24.4824C31.2664 24.5174 31.2798 24.5527 31.2916 24.5877C31.305 24.628 31.32 24.6698 31.3318 24.7117C31.3416 24.7422 31.3501 24.7722 31.3586 24.804C31.3668 24.8324 31.3737 24.8593 31.3802 24.8877C31.3904 24.928 31.3985 24.9682 31.4071 25.0085C31.4156 25.0484 31.4221 25.0886 31.429 25.1305C31.4555 25.2931 31.4689 25.459 31.4689 25.6281Z" fill="#136DA0"/>
<path d="M16.9209 20.4307L14.265 21.3065C14.0916 21.3634 13.9582 21.5034 13.9094 21.6794L13.5724 22.8948C13.4697 23.2651 13.7393 23.6352 14.1312 23.661L15.3653 23.7425C15.6587 23.7618 15.7634 24.1321 15.5213 24.296L14.3629 25.0809C14.055 25.2896 14.0043 25.7152 14.2549 25.9874L20.0001 32.3408C20.0001 32.3408 17.1038 23.9666 16.9209 20.4307Z" fill="#27C1E6"/>
<path d="M23.0793 20.4307L25.7351 21.3065C25.9085 21.3634 26.042 21.5034 26.0907 21.6794L26.4277 22.8948C26.5304 23.2651 26.2609 23.6352 25.8689 23.661L24.6349 23.7425C24.3414 23.7618 24.2367 24.1321 24.4788 24.296L25.6373 25.0809C25.9452 25.2896 25.9959 25.7152 25.7453 25.9874L20.0001 32.3408C20.0001 32.3408 22.8964 23.9666 23.0793 20.4307Z" fill="#27C1E6"/>
<path d="M27.1779 29.9047H23.9446C23.7186 29.9047 23.535 29.7215 23.535 29.4951C23.535 29.2687 23.7182 29.0852 23.9446 29.0852H27.1783C27.4043 29.0852 27.5879 29.2684 27.5879 29.4951C27.5879 29.7212 27.4043 29.9047 27.1779 29.9047Z" fill="#27C1E6"/>
<path d="M20.0226 24.0731H19.9775C18.2926 24.0731 16.9271 22.7076 16.9271 21.0227V17.2545H23.073V21.0227C23.073 22.7076 21.7071 24.0731 20.0226 24.0731Z" fill="#E6E7E8"/>
<path d="M24.7811 12.4535C24.7811 16.0186 22.6406 20.1378 20.0001 20.1378C17.3596 20.1378 15.2187 16.0186 15.2187 12.4535C15.2187 8.88884 17.3593 7.22852 20.0001 7.22852C22.6406 7.22819 24.7811 8.88884 24.7811 12.4535Z" fill="white"/>
<path d="M16.2594 13.7818C16.3935 14.6812 15.9754 15.4886 15.3257 15.5857C14.6759 15.6829 13.9254 14.7041 13.791 13.805C13.6568 12.906 14.1898 12.4264 14.8395 12.3296C15.4896 12.2324 16.1249 12.8828 16.2594 13.7818Z" fill="white"/>
<path d="M15.2272 12.8314C15.2246 12.8317 15.2216 12.8317 15.2187 12.8321C14.7306 12.905 14.3278 13.2829 14.4113 13.8427C14.495 14.4024 14.9867 15.1074 15.4749 15.0348C15.503 15.0306 15.5308 15.024 15.5583 15.0162C15.3725 14.2974 15.2573 13.5567 15.2272 12.8314Z" fill="#E6E7E8"/>
<path d="M23.7408 13.7818C23.6063 14.6812 24.0244 15.4886 24.6745 15.5857C25.3242 15.6829 26.0747 14.7041 26.2092 13.805C26.3433 12.906 25.8107 12.4264 25.1606 12.3296C24.5106 12.2324 23.8749 12.8828 23.7408 13.7818Z" fill="white"/>
<path d="M24.7736 12.8314C24.7766 12.8317 24.7795 12.8317 24.7821 12.8321C25.2706 12.905 25.6733 13.2829 25.5896 13.8427C25.5061 14.4024 25.0144 15.1074 24.526 15.0348C24.4978 15.0306 24.47 15.024 24.4429 15.0162C24.6287 14.2974 24.7439 13.5567 24.7736 12.8314Z" fill="#E6E7E8"/>
<path d="M17.7633 9.67006C17.7633 9.67006 18.5658 11.7364 20.6148 12.2484C22.6638 12.7607 24.7654 12.1375 24.7654 12.1375L25.0373 9.12861C25.0592 8.88554 24.9169 8.65685 24.6886 8.56917L19.2146 6.47112C19.0078 6.39195 18.7739 6.44527 18.6221 6.60591L17.0802 8.2358L17.7633 9.67006Z" fill="#1CAEE4"/>
<path d="M17.9337 9.55068C17.9337 9.55068 17.5752 10.6094 16.9945 11.2067C16.4141 11.8045 15.2347 12.4506 15.2347 12.4506L14.6936 10.2223C14.6582 10.0767 14.6841 9.92331 14.7649 9.79769L16.0464 7.80596C16.186 7.58872 16.4589 7.49908 16.7 7.59101L17.4279 7.86812L17.9337 9.55068Z" fill="#1CAEE4"/>
<path d="M23.8376 10.1861C23.4565 9.81015 23.1725 9.33708 23.0201 8.82442C22.6838 9.61483 22.9841 10.5037 23.6554 10.9745C22.9834 10.7488 22.3278 10.4792 21.7494 10.0745C21.0849 9.60927 20.5402 8.97393 20.1823 8.24601C19.9301 9.30371 20.359 10.35 21.1599 10.9781C21.1527 10.9765 21.1455 10.9752 21.1386 10.9735C19.0896 10.4612 18.2871 8.39487 18.2871 8.39487L17.8323 7.44055L17.4283 7.86782L16.7377 7.60511L16.8326 7.92016C17.1051 8.82704 16.9281 9.82585 16.3098 10.543C16.279 10.579 16.2473 10.6133 16.2152 10.6467C16.1298 10.735 16.0304 10.8237 15.9247 10.9117C16.1246 10.3676 15.9993 9.73065 15.5393 9.31974C15.6054 9.75355 15.5599 10.204 15.4081 10.6156C15.3041 10.8983 15.1526 11.158 14.9815 11.4063L15.2351 14.107C15.2351 14.3975 15.4536 14.6334 15.7228 14.6334C15.7755 14.6334 15.818 14.5876 15.818 14.5307V12.1032C16.1998 11.8617 16.6834 11.528 16.9952 11.2071C17.3917 10.7988 17.6848 10.1753 17.8304 9.82127C18.0604 10.3061 18.9018 11.8202 20.6151 12.2484C22.0039 12.5959 23.4166 12.4212 24.1825 12.273V14.5307C24.1825 14.5876 24.225 14.6334 24.2777 14.6334C24.5472 14.6334 24.7658 14.3979 24.7658 14.1073L24.8754 10.9258C24.5001 10.7187 24.1412 10.4857 23.8376 10.1861Z" fill="#009ADD"/>
<path d="M20.0001 16.3163C19.7197 16.3163 19.4524 16.2607 19.2087 16.1603C19.0588 16.0984 18.9339 16.2888 19.0513 16.4007C19.3163 16.6539 19.6444 16.8038 20.0001 16.8038C20.3557 16.8038 20.6835 16.6539 20.9488 16.4007C21.0663 16.2888 20.9413 16.0984 20.7911 16.1603C20.5477 16.2607 20.2801 16.3163 20.0001 16.3163Z" fill="#D1D3D4"/>
<path d="M19.4321 17.7051C19.7711 17.7051 20.0462 17.8677 20.0462 18.0679V18.1245H18.7042C18.5217 18.1245 18.4556 17.9825 18.6123 17.9272L19.0765 17.7633C19.1842 17.7254 19.3068 17.7051 19.4321 17.7051Z" fill="#E6E7E8"/>
<path d="M20.568 17.7051C20.2287 17.7051 19.9539 17.8677 19.9539 18.0679V18.1245H21.2956C21.4781 18.1245 21.5446 17.9825 21.3878 17.9272L20.9233 17.7633C20.816 17.7254 20.693 17.7051 20.568 17.7051Z" fill="#E6E7E8"/>
<path d="M18.5246 18.0303C18.5246 18.2864 19.1851 18.4942 20.0001 18.4942C20.815 18.4942 21.4755 18.2868 21.4755 18.0303H18.5246Z" fill="#D1D3D4"/>
</svg>
