<svg width="40" height="40" viewBox="0 0 40 40" fill="none" xmlns="http://www.w3.org/2000/svg">
<path d="M20 40C31.0457 40 40 31.0457 40 20C40 8.9543 31.0457 0 20 0C8.9543 0 0 8.9543 0 20C0 31.0457 8.9543 40 20 40Z" fill="#E6F3FF"/>
<path d="M39.4575 24.641L25.6127 10.7961L19.6634 24.0629L17.3813 30.8436L25.7095 39.1716C32.5159 37.1476 37.8041 31.599 39.4575 24.641Z" fill="#CFDBE6"/>
<path d="M27.8115 16.2289C27.8115 11.8766 24.252 8.35565 19.8852 8.4183C15.7097 8.47823 12.2816 11.8793 12.1905 16.0542C12.1439 18.1864 12.9525 20.1288 14.2966 21.5639C15.4387 22.7835 16.0943 24.3788 16.0943 26.0495V27.9462H23.9058V26.1462C23.9058 24.4604 24.5177 22.8176 25.6763 21.5931C26.9996 20.194 27.8115 18.3067 27.8115 16.2289Z" fill="#F9B54C"/>
<path d="M19.9552 8.41919V27.9461H23.9057V26.1461C23.9057 24.4604 24.5177 22.8176 25.6762 21.593C26.9995 20.1943 27.8114 18.3068 27.8114 16.2291C27.8115 11.9 24.2899 8.39505 19.9552 8.41919Z" fill="#F4A200"/>
<path d="M23.9057 16.7319H16.0943V17.6787H17.0149L18.9866 27.1176L19.8991 26.7838L17.9973 17.6787H22.0028L20.101 26.7838L21.0136 27.1176L22.9852 17.6787H23.9057V16.7319Z" fill="#FFD15D"/>
<path d="M19.9552 16.7319V17.6787H22.0028L20.101 26.7838L21.0136 27.1177L22.9852 17.6787H23.9057V16.7319H19.9552Z" fill="#F9B54C"/>
<path d="M20 31.8519C17.843 31.8519 16.0943 30.1032 16.0943 27.9462V25.9933H23.9058V27.9462C23.9057 30.1032 22.1572 31.8519 20 31.8519Z" fill="#31BAFD"/>
<path d="M19.9552 25.9933V31.8508C19.9701 31.8509 19.9849 31.8519 20 31.8519C22.157 31.8519 23.9057 30.1032 23.9057 27.9462V25.9933H19.9552Z" fill="#2B9ED8"/>
</svg>
